<svg width="170" height="24" viewBox="0 0 170 24" fill="none" xmlns="http://www.w3.org/2000/svg">
<path d="M18.8536 5.16962H12.2781V23H6.99674V5.16962H0.541687V1.09196H18.8536V5.16962Z" fill="#384452"/>
<path d="M39.4074 23H34.1561V13.8516H26.3769V23H21.0955V1.09196H26.3769V9.78897H34.1561V1.09196H39.4074V23Z" fill="#384452"/>
<path d="M48.3903 23H43.1239V1.09196H48.3903V23Z" fill="#384452"/>
<path d="M70.3585 23H65.1072L57.3431 9.36766V23H52.0617V1.09196H57.3431L65.0922 14.7243V1.09196H70.3585V23Z" fill="#384452"/>
<path d="M91.6346 20.2916C90.8221 21.1944 89.6334 21.9217 88.0685 22.4734C86.5037 23.0251 84.7883 23.3009 82.9226 23.3009C80.0536 23.3009 77.7615 22.4232 76.0462 20.6678C74.3309 18.9123 73.413 16.4697 73.2926 13.34L73.2776 11.4441C73.2776 9.28741 73.6588 7.40657 74.4212 5.80158C75.1835 4.18657 76.2719 2.94772 77.6863 2.08504C79.1107 1.21233 80.7558 0.775974 82.6216 0.775974C85.3501 0.775974 87.4667 1.40292 88.9713 2.65682C90.486 3.90068 91.3688 5.76146 91.6196 8.23915H86.5338C86.3532 7.01535 85.962 6.14264 85.3601 5.62102C84.7583 5.0994 83.9056 4.83859 82.8022 4.83859C81.4781 4.83859 80.4549 5.40034 79.7327 6.52383C79.0104 7.64732 78.6443 9.2523 78.6342 11.3388V12.6629C78.6342 14.8497 79.0054 16.4948 79.7477 17.5982C80.5 18.6916 81.6787 19.2383 83.2837 19.2383C84.6579 19.2383 85.6811 18.9324 86.3532 18.3205V14.9199H82.6818V11.2936H91.6346V20.2916Z" fill="#384452"/>
<path d="M106.004 17.1769C106.004 16.4045 105.728 15.8026 105.177 15.3713C104.635 14.94 103.677 14.4936 102.303 14.0321C100.928 13.5707 99.805 13.1243 98.9323 12.693C96.0935 11.2987 94.674 9.38271 94.674 6.94514C94.674 5.73137 95.0251 4.66305 95.7273 3.74018C96.4395 2.80728 97.4426 2.08504 98.7367 1.57345C100.031 1.05183 101.485 0.791021 103.1 0.791021C104.675 0.791021 106.084 1.07189 107.328 1.63364C108.582 2.19538 109.555 2.99788 110.247 4.04112C110.94 5.07432 111.286 6.258 111.286 7.59214H106.019C106.019 6.69937 105.743 6.00722 105.192 5.5157C104.65 5.02417 103.913 4.77841 102.98 4.77841C102.037 4.77841 101.29 4.98906 100.738 5.41037C100.196 5.82165 99.9254 6.34828 99.9254 6.99028C99.9254 7.55202 100.226 8.06361 100.828 8.52504C101.43 8.97644 102.488 9.44791 104.003 9.93944C105.518 10.4209 106.762 10.9426 107.735 11.5043C110.102 12.8685 111.286 14.7494 111.286 17.1468C111.286 19.0628 110.563 20.5674 109.119 21.6608C107.674 22.7542 105.693 23.3009 103.175 23.3009C101.4 23.3009 99.7899 22.985 98.3455 22.353C96.911 21.711 95.8276 20.8383 95.0954 19.7349C94.3731 18.6214 94.012 17.3424 94.012 15.8979H99.3084C99.3084 17.0716 99.6094 17.9393 100.211 18.501C100.823 19.0527 101.811 19.3286 103.175 19.3286C104.048 19.3286 104.735 19.143 105.237 18.7719C105.748 18.3907 106.004 17.859 106.004 17.1769Z" fill="#384452"/>
<path d="M119.514 19.2818H129.099V22.908H115V1H119.514V19.2818Z" fill="#00B3FE"/>
<path d="M144.371 18.394H136.457L134.952 22.908H130.152L138.307 1H142.49L150.691 22.908H145.891L144.371 18.394ZM137.675 14.7377H143.152L140.399 6.5372L137.675 14.7377Z" fill="#00B3FE"/>
<path d="M152.737 22.908V1H160.411C163.069 1 165.086 1.51159 166.46 2.53477C167.834 3.54791 168.521 5.03754 168.521 7.00365C168.521 8.07698 168.245 9.02492 167.694 9.84748C167.142 10.66 166.375 11.2569 165.392 11.638C166.515 11.9189 167.398 12.4857 168.04 13.3383C168.692 14.191 169.018 15.2342 169.018 16.468C169.018 18.5746 168.346 20.1695 167.002 21.2529C165.657 22.3363 163.741 22.888 161.254 22.908H152.737ZM157.251 13.3684V19.2818H161.118C162.182 19.2818 163.009 19.031 163.601 18.5294C164.203 18.0179 164.504 17.3157 164.504 16.4229C164.504 14.4167 163.466 13.3985 161.389 13.3684H157.251ZM157.251 10.1785H160.592C162.869 10.1384 164.007 9.23056 164.007 7.45505C164.007 6.46196 163.716 5.74975 163.134 5.31841C162.563 4.87704 161.655 4.65636 160.411 4.65636H157.251V10.1785Z" fill="#00B3FE"/>
</svg>
